<svg width="261" height="244" viewBox="0 0 261 244" fill="none" xmlns="http://www.w3.org/2000/svg">
<g clip-path="url(#clip0_17_2)">
<path d="M176.892 31.23C197.822 43.466 220.04 54.414 236.14 73.412C251.918 92.088 261.256 118.492 259.968 144.896C258.358 171.3 245.8 197.704 226.158 214.448C206.516 230.87 179.79 237.632 154.996 238.92C130.202 240.208 107.662 236.022 86.088 228.938C64.836 222.176 44.228 212.838 29.738 197.704C15.57 182.57 6.876 161.318 3.012 138.778C-1.174 116.56 -0.852001 93.054 6.876 71.158C14.282 48.94 28.772 28.654 48.414 15.774C68.056 2.89399 92.528 -2.25801 114.424 1.60599C136.32 5.46999 155.962 18.994 176.892 31.23Z" fill="url(#paint0_linear_17_2)"/>
</g>
<path d="M66.3881 116.469V42.3392H37.4042V21.7699H119.28V42.3392H90.2965V116.469H66.3881ZM171.931 118.205C164.629 118.205 157.906 116.958 151.762 114.465C145.618 111.972 140.231 108.499 135.601 104.047C131.059 99.5946 127.498 94.3856 124.915 88.4196C122.333 82.4536 121.042 75.9534 121.042 68.9189C121.042 61.9734 122.288 55.5622 124.782 49.6853C127.364 43.7194 130.926 38.5103 135.467 34.058C140.008 29.6058 145.351 26.1776 151.495 23.7734C157.639 21.2802 164.362 20.0336 171.663 20.0336C178.876 20.0336 185.554 21.2802 191.698 23.7734C197.843 26.1776 203.185 29.6058 207.726 34.058C212.357 38.5103 215.919 43.7194 218.412 49.6853C220.994 55.6513 222.285 62.107 222.285 69.0525C222.285 76.087 220.994 82.5872 218.412 88.5532C215.919 94.5191 212.401 99.7282 207.86 104.18C203.319 108.544 197.976 111.972 191.832 114.465C185.688 116.958 179.054 118.205 171.931 118.205ZM171.663 96.8343C179.588 96.8343 185.911 94.2965 190.63 89.221C195.438 84.1455 197.843 77.3781 197.843 68.9189C197.843 63.3981 196.729 58.5898 194.503 54.4937C192.366 50.3086 189.339 47.0585 185.421 44.7434C181.503 42.4282 176.917 41.2706 171.663 41.2706C163.739 41.2706 157.372 43.8084 152.563 48.8839C147.844 53.9594 145.484 60.6378 145.484 68.9189C145.484 77.3781 147.844 84.1455 152.563 89.221C157.372 94.2965 163.739 96.8343 171.663 96.8343ZM42.5732 224.469V139.24H77.6745C86.4097 139.24 94.1833 141.043 100.995 144.649C107.887 148.175 113.297 153.144 117.223 159.555C121.23 165.966 123.234 173.379 123.234 181.794C123.234 188.205 122.072 194.015 119.748 199.224C117.504 204.434 114.338 208.921 110.251 212.688C106.164 216.455 101.356 219.38 95.8262 221.463C90.3766 223.467 84.4062 224.469 77.9149 224.469H42.5732ZM77.5543 157.752H64.0908V205.956H77.5543C84.7669 205.956 90.4969 203.873 94.7443 199.705C99.0718 195.538 101.236 189.528 101.236 181.674C101.236 173.98 99.0718 168.09 94.7443 164.003C90.4167 159.836 84.6867 157.752 77.5543 157.752ZM176.786 226.031C170.214 226.031 164.164 224.909 158.634 222.665C153.104 220.421 148.256 217.296 144.089 213.289C140.001 209.282 136.796 204.594 134.472 199.224C132.148 193.855 130.986 188.005 130.986 181.674C130.986 175.423 132.108 169.653 134.352 164.364C136.676 158.994 139.881 154.306 143.968 150.299C148.055 146.292 152.864 143.207 158.393 141.043C163.923 138.799 169.974 137.677 176.545 137.677C183.036 137.677 189.047 138.799 194.577 141.043C200.106 143.207 204.915 146.292 209.002 150.299C213.169 154.306 216.375 158.994 218.619 164.364C220.943 169.733 222.105 175.543 222.105 181.794C222.105 188.125 220.943 193.975 218.619 199.345C216.375 204.714 213.209 209.402 209.122 213.409C205.035 217.336 200.226 220.421 194.697 222.665C189.167 224.909 183.197 226.031 176.786 226.031ZM176.545 206.798C183.678 206.798 189.368 204.514 193.615 199.946C197.942 195.378 200.106 189.287 200.106 181.674C200.106 176.705 199.105 172.378 197.101 168.691C195.178 164.925 192.453 162 188.927 159.916C185.401 157.832 181.273 156.79 176.545 156.79C169.413 156.79 163.683 159.074 159.355 163.642C155.108 168.21 152.984 174.221 152.984 181.674C152.984 189.287 155.108 195.378 159.355 199.946C163.683 204.514 169.413 206.798 176.545 206.798Z" fill="white"/>
<defs>
<linearGradient id="paint0_linear_17_2" x1="0.336334" y1="239.152" x2="238.295" y2="-19.6824" gradientUnits="userSpaceOnUse">
<stop stop-color="#9991FF"/>
<stop offset="1" stop-color="#9991FF"/>
</linearGradient>
<clipPath id="clip0_17_2">
<rect width="261" height="240" fill="white"/>
</clipPath>
</defs>
</svg>
